name rise42.5664peak47.7979fall81.9185.mot
datacolumns 19
datarows 18
range 9.66829400000000 9.69664000000000
endheader
time	ground_force1_vx	ground_force1_vy	ground_force1_vz	ground_force1_px	ground_force1_py	ground_force1_pz	ground_force2_vx	ground_force2_vy	ground_force2_vz	ground_force2_px	ground_force2_py	ground_force2_pz	ground_torque1_x	ground_torque1_y	ground_torque1_z	ground_torque2_x	ground_torque2_y	ground_torque2_z	
9.66829400000000	12.39195700000000	716.14174100000002	39.99728300000000	0.18414300000000	0.00000000000000	0.10231700000000	0.00000000000000	0.00000000000000	0.00000000000000	0.00000000000000	0.00000000000000	0.00000000000000	0.00000000000000	12.00076900000000	0.00000000000000	0.00000000000000	0.00000000000000	0.00000000000000	
9.66995800000000	12.05813400000000	717.33141599999999	40.07598200000000	0.18319200000000	0.00000000000000	0.10232200000000	0.00000000000000	0.00000000000000	0.00000000000000	0.00000000000000	0.00000000000000	0.00000000000000	0.00000000000000	12.06522100000000	0.00000000000000	0.00000000000000	0.00000000000000	0.00000000000000	
9.67163500000000	11.71300400000000	718.53627800000004	40.15836700000000	0.18222300000000	0.00000000000000	0.10232900000000	0.00000000000000	0.00000000000000	0.00000000000000	0.00000000000000	0.00000000000000	0.00000000000000	0.00000000000000	12.13179500000000	0.00000000000000	0.00000000000000	0.00000000000000	0.00000000000000	
9.67329600000000	11.35647700000000	719.75382900000000	40.24412700000000	0.18123800000000	0.00000000000000	0.10233700000000	0.00000000000000	0.00000000000000	0.00000000000000	0.00000000000000	0.00000000000000	0.00000000000000	0.00000000000000	12.20039800000000	0.00000000000000	0.00000000000000	0.00000000000000	0.00000000000000	
9.67496200000000	10.98849600000000	720.98165100000006	40.33295000000000	0.18023600000000	0.00000000000000	0.10234500000000	0.00000000000000	0.00000000000000	0.00000000000000	0.00000000000000	0.00000000000000	0.00000000000000	0.00000000000000	12.27094200000000	0.00000000000000	0.00000000000000	0.00000000000000	0.00000000000000	
9.67663600000000	10.60904200000000	722.21740799999998	40.42452600000000	0.17922000000000	0.00000000000000	0.10235400000000	0.00000000000000	0.00000000000000	0.00000000000000	0.00000000000000	0.00000000000000	0.00000000000000	0.00000000000000	12.34334000000000	0.00000000000000	0.00000000000000	0.00000000000000	0.00000000000000	
9.67829500000000	10.21812900000000	723.45885299999998	40.51855000000000	0.17819000000000	0.00000000000000	0.10236400000000	0.00000000000000	0.00000000000000	0.00000000000000	0.00000000000000	0.00000000000000	0.00000000000000	0.00000000000000	12.41750600000000	0.00000000000000	0.00000000000000	0.00000000000000	0.00000000000000	
9.67996400000000	9.81580600000000	724.70383000000004	40.61471500000000	0.17714800000000	0.00000000000000	0.10237500000000	0.00000000000000	0.00000000000000	0.00000000000000	0.00000000000000	0.00000000000000	0.00000000000000	0.00000000000000	12.49335800000000	0.00000000000000	0.00000000000000	0.00000000000000	0.00000000000000	
9.68163600000000	9.40215500000000	725.95027600000003	40.71272400000000	0.17609500000000	0.00000000000000	0.10238600000000	0.00000000000000	0.00000000000000	0.00000000000000	0.00000000000000	0.00000000000000	0.00000000000000	0.00000000000000	12.57081400000000	0.00000000000000	0.00000000000000	0.00000000000000	0.00000000000000	
9.68329400000000	8.97728800000000	727.19623000000001	40.81227900000000	0.17503200000000	0.00000000000000	0.10239700000000	0.00000000000000	0.00000000000000	0.00000000000000	0.00000000000000	0.00000000000000	0.00000000000000	0.00000000000000	12.64979500000000	0.00000000000000	0.00000000000000	0.00000000000000	0.00000000000000	
9.68495900000000	8.54134900000000	728.43983100000003	40.91309300000000	0.17396100000000	0.00000000000000	0.10240900000000	0.00000000000000	0.00000000000000	0.00000000000000	0.00000000000000	0.00000000000000	0.00000000000000	0.00000000000000	12.73022600000000	0.00000000000000	0.00000000000000	0.00000000000000	0.00000000000000	
9.68663100000000	8.09450800000000	729.67931899999996	41.01488100000000	0.17288300000000	0.00000000000000	0.10242000000000	0.00000000000000	0.00000000000000	0.00000000000000	0.00000000000000	0.00000000000000	0.00000000000000	0.00000000000000	12.81203200000000	0.00000000000000	0.00000000000000	0.00000000000000	0.00000000000000	
9.68830000000000	7.63696700000000	730.91304200000002	41.11736900000000	0.17179900000000	0.00000000000000	0.10243200000000	0.00000000000000	0.00000000000000	0.00000000000000	0.00000000000000	0.00000000000000	0.00000000000000	0.00000000000000	12.89513800000000	0.00000000000000	0.00000000000000	0.00000000000000	0.00000000000000	
9.68996400000000	7.16894900000000	732.13945500000000	41.22029000000000	0.17071100000000	0.00000000000000	0.10244300000000	0.00000000000000	0.00000000000000	0.00000000000000	0.00000000000000	0.00000000000000	0.00000000000000	0.00000000000000	12.97947600000000	0.00000000000000	0.00000000000000	0.00000000000000	0.00000000000000	
9.69165100000000	6.69070600000000	733.35711600000002	41.32338500000000	0.16962000000000	0.00000000000000	0.10245500000000	0.00000000000000	0.00000000000000	0.00000000000000	0.00000000000000	0.00000000000000	0.00000000000000	0.00000000000000	13.06497500000000	0.00000000000000	0.00000000000000	0.00000000000000	0.00000000000000	
9.69329400000000	6.20251200000000	734.56469600000003	41.42640600000000	0.16852700000000	0.00000000000000	0.10246600000000	0.00000000000000	0.00000000000000	0.00000000000000	0.00000000000000	0.00000000000000	0.00000000000000	0.00000000000000	13.15156700000000	0.00000000000000	0.00000000000000	0.00000000000000	0.00000000000000	
9.69495900000000	5.70466200000000	735.76097100000004	41.52911700000000	0.16743500000000	0.00000000000000	0.10247600000000	0.00000000000000	0.00000000000000	0.00000000000000	0.00000000000000	0.00000000000000	0.00000000000000	0.00000000000000	13.23918600000000	0.00000000000000	0.00000000000000	0.00000000000000	0.00000000000000	
9.69664000000000	5.19747300000000	736.94482500000004	41.63129200000000	0.16634400000000	0.00000000000000	0.10248600000000	0.00000000000000	0.00000000000000	0.00000000000000	0.00000000000000	0.00000000000000	0.00000000000000	0.00000000000000	13.32776700000000	0.00000000000000	0.00000000000000	0.00000000000000	0.00000000000000	
